<svg width="1080" height="1080" viewBox="0 0 1080 1080" fill="none" xmlns="http://www.w3.org/2000/svg">
<g clip-path="url(#clip0)">
<rect x="165.271" y="452.419" width="610.523" height="466.871" transform="rotate(-24 165.271 452.419)" fill="#2B8835"/>
<path d="M347.332 758.915L362.185 752.302C370.453 748.621 373.667 743.887 371.281 738.528C369.781 735.159 365.491 732.941 358.693 735.6C363.176 732.687 364.688 729.078 363.393 726.169C361.007 720.81 354.99 720.278 347.105 723.789L334.242 729.515L347.332 758.915ZM353.825 747.125L351.746 742.455L356.799 740.205C358.502 739.447 359.956 739.878 360.612 741.352C361.251 742.787 360.582 744.117 358.878 744.875L353.825 747.125ZM349.36 737.096L347.451 732.808L350.513 731.445C352.313 730.644 353.781 730.953 354.377 732.293C354.974 733.633 354.355 734.872 352.728 735.596L349.36 737.096Z" fill="white"/>
<path d="M382.92 726.924L375.829 711L365.876 715.431L378.966 744.83L388.919 740.399L389.987 720.75L397.111 736.752L407.064 732.32L393.974 702.921L384.022 707.352L382.92 726.924Z" fill="white"/>
<path d="M411.294 730.437L414.356 729.074C420.405 726.381 423.124 720.95 419.195 710.682L416.109 702.515L421.009 700.333L430.587 721.847L440.54 717.416L427.451 688.016L403.258 698.788L408.593 712.008C410.954 717.929 410.888 721.077 408.591 722.1L407.672 722.509L411.294 730.437Z" fill="white"/>
<path d="M445.603 715.162L456.169 710.458L452.112 701.347L454.486 700.29L464.207 706.878L476.457 701.425L460.487 691.105L463.291 672.059L451.195 677.445L449.586 690.729L447.749 691.547L443.079 681.058L432.514 685.762L445.603 715.162Z" fill="white"/>
<path d="M487.318 697.139C491.146 695.435 493.457 692.847 493.771 688.762L494.001 688.66L495.842 692.794L505.718 688.397L496.753 668.261C494.333 662.825 487.309 660.907 478.907 664.648C470.121 668.559 467.841 675.079 469.863 680.6L479.587 676.271C479.026 674.342 479.982 672.884 481.992 671.989C483.829 671.171 485.506 671.434 486.188 672.965L486.222 673.042C486.98 674.745 485.343 676.116 480.567 678.679C474.695 681.82 471.058 686.375 473.93 692.825C476.538 698.682 481.691 699.645 487.318 697.139ZM487.798 688.945C485.999 689.746 484.343 689.428 483.611 687.782C482.937 686.269 483.489 684.625 485.769 683.151C487.334 682.133 488.597 681.158 489.503 680.204L490.593 682.654C491.786 685.334 490.19 687.879 487.798 688.945Z" fill="white"/>
<path d="M390.613 818.006C399.321 814.129 402.437 806.756 399.084 798.914L389.284 803.278C390.426 806.462 389.503 808.868 387.187 809.899C384.411 811.135 381.536 809.571 379.389 804.748C377.241 799.924 378.003 796.741 380.778 795.506C383.113 794.466 385.443 795.424 387.102 798.378L396.902 794.015C393.436 786.384 385.765 783.836 377.114 787.688C367.544 791.949 364.605 800.596 368.628 809.631C372.65 818.665 381.042 822.267 390.613 818.006Z" fill="white"/>
<path d="M397.548 788.498L406.735 784.408L416.314 805.921L426.267 801.49L416.688 779.976L426.029 775.818L422.518 767.932L394.037 780.612L397.548 788.498Z" fill="white"/>
<path d="M447.138 792.748C450.966 791.043 453.277 788.455 453.591 784.37L453.821 784.268L455.662 788.403L465.538 784.005L456.573 763.87C454.153 758.434 447.129 756.515 438.727 760.256C429.941 764.168 427.661 770.687 429.683 776.209L439.407 771.88C438.846 769.95 439.802 768.493 441.812 767.598C443.649 766.78 445.326 767.042 446.008 768.574L446.042 768.65C446.8 770.354 445.163 771.725 440.387 774.287C434.515 777.429 430.878 781.984 433.75 788.434C436.358 794.291 441.511 795.253 447.138 792.748ZM447.618 784.553C445.819 785.354 444.163 785.036 443.431 783.39C442.757 781.878 443.309 780.233 445.589 778.76C447.154 777.742 448.417 776.767 449.322 775.813L450.413 778.263C451.606 780.943 450.01 783.488 447.618 784.553Z" fill="white"/>
<path d="M470.586 781.758L481.152 777.054L477.095 767.943L479.469 766.886L489.191 773.474L501.441 768.02L485.47 757.701L488.274 738.655L476.178 744.041L474.57 757.325L472.732 758.143L468.062 747.654L457.497 752.358L470.586 781.758Z" fill="white"/>
<path d="M512.301 763.735C516.13 762.031 518.44 759.443 518.755 755.358L518.984 755.256L520.825 759.39L530.701 754.993L521.736 734.857C519.316 729.421 512.293 727.503 503.89 731.244C495.105 735.155 492.824 741.675 494.847 747.196L504.57 742.867C504.009 740.938 504.965 739.48 506.975 738.585C508.813 737.767 510.489 738.03 511.171 739.561L511.205 739.638C511.963 741.341 510.326 742.712 505.55 745.275C499.679 748.416 496.042 752.971 498.914 759.421C501.521 765.278 506.674 766.241 512.301 763.735ZM512.781 755.541C510.982 756.342 509.327 756.024 508.594 754.377C507.921 752.865 508.473 751.221 510.752 749.747C512.317 748.729 513.58 747.754 514.486 746.8L515.577 749.25C516.77 751.93 515.174 754.475 512.781 755.541Z" fill="white"/>
<path d="M532.613 718.914L522.66 723.345L535.75 752.745L545.703 748.314L540.862 737.442L548.212 734.17L553.052 745.041L562.929 740.644L549.839 711.245L539.963 715.642L544.701 726.284L537.351 729.556L532.613 718.914Z" fill="white"/>
<path d="M726.606 123.873L759.414 109.266L774.021 142.074L741.213 156.681L726.606 123.873Z" fill="white"/>
<path fill-rule="evenodd" clip-rule="evenodd" d="M960.32 648.806L945.713 615.997L978.522 601.39L963.914 568.582L931.106 583.189L916.499 550.381L949.307 535.773L934.7 502.965L901.892 517.572L887.285 484.764L920.093 470.157L905.486 437.349L872.677 451.956L858.07 419.148L890.879 404.54L876.271 371.732L843.463 386.339L828.856 353.531L861.664 338.924L847.057 306.116L814.249 320.723L799.641 287.914L832.45 273.307L817.843 240.499L785.034 255.106L770.427 222.298L803.235 207.691L788.628 174.882L755.82 189.49L741.213 156.681L708.404 171.288L693.797 138.48L660.989 153.087L675.596 185.896L642.788 200.503L628.181 167.695L595.372 182.302L609.979 215.11L577.171 229.717L562.564 196.909L529.756 211.516L544.363 244.324L511.555 258.932L496.947 226.123L464.139 240.731L478.746 273.539L445.938 288.146L431.331 255.338L398.523 269.945L413.13 302.753L380.322 317.36L365.714 284.552L332.906 299.159L347.513 331.968L314.705 346.575L300.098 313.766L267.29 328.374L281.897 361.182L249.088 375.789L234.481 342.981L201.673 357.588L216.28 390.396L183.472 405.003L168.865 372.195L136.056 386.802L150.664 419.611L117.855 434.218L103.248 401.41L70.4398 416.017L85.047 448.825L117.855 434.218L132.463 467.026L99.6542 481.633L114.261 514.442L147.07 499.834L161.677 532.643L128.869 547.25L143.476 580.058L176.284 565.451L190.891 598.259L158.083 612.867L172.69 645.675L205.498 631.068L220.106 663.876L187.297 678.483L201.905 711.291L234.713 696.684L249.32 729.492L216.512 744.1L231.119 776.908L263.927 762.301L278.534 795.109L245.726 809.716L260.333 842.524L293.142 827.917L307.749 860.726L274.94 875.333L289.548 908.141L322.356 893.534L336.963 926.342L304.155 940.949L318.762 973.758L351.57 959.15L336.963 926.342L369.771 911.735L384.379 944.543L417.187 929.936L402.58 897.128L435.388 882.521L449.995 915.329L482.803 900.722L468.196 867.913L501.005 853.306L515.612 886.114L548.42 871.507L533.813 838.699L566.621 824.092L581.228 856.9L614.037 842.293L599.43 809.485L632.238 794.877L646.845 827.686L679.653 813.079L665.046 780.27L697.854 765.663L712.461 798.471L745.27 783.864L730.663 751.056L763.471 736.449L778.078 769.257L810.886 754.65L796.279 721.842L829.087 707.234L843.695 740.043L876.503 725.435L861.896 692.627L894.704 678.02L909.311 710.828L942.119 696.221L927.512 663.413L960.32 648.806ZM912.905 630.604L355.164 878.927L165.271 452.419L723.012 204.097L912.905 630.604Z" fill="white"/>
<path d="M960.32 648.806L993.129 634.198L1007.74 667.007L974.928 681.614L960.32 648.806Z" fill="white"/>
</g>
<defs>
<clipPath id="clip0">
<rect width="1080" height="1080" fill="white"/>
</clipPath>
</defs>
</svg>
